# xmcd
#
# Track frame offsets:
#	150
#	17765
#	32582
#	54577
#	75775
#	92090
#	108572
#	126352
#	147955
#	165940
#	184105
#	203205
#	223710
#	245315
#	267235
#	285307
#	301575
#
# Disc length: 4271 seconds
#
# Revision: 1
# Processed by: cddbd v1.5.1PL0 Copyright (c) Steve Scherf et al.
# Submitted via: CDex 1.50Beta5
#
DISCID=dc10ad11
DTITLE=ファティマ・レイニー - ヒット丼
DYEAR=1997
DGENRE=Pop
TTITLE0=ファティマ・レイニー/ラブ・イズ・ア・ワンダフル・シング
TTITLE1=カーディガンズ/ラブフール
TTITLE2=アン・ボーグ/ドント・レット・ゴー
TTITLE3=スイング・アウト・シスター/あなたにいてほしい
TTITLE4=MR.BIG/ステイ・トゥゲザー
TTITLE5=ミスター・プレジデント/ココ・ジャンボ
TTITLE6=ブレイズ/ボヘミアン・ラプソディー
TTITLE7=スノー/ブーン・ブーン・ブギ
TTITLE8=ドナ・ルイス/ラブ・オールウェイズ
TTITLE9=アリーシャズ・アティック/アイ・アム・アイ・フィール
TTITLE10=ジュエル/ユー・アー・メント・フォー・ミー
TTITLE11=シェリル・クロウ/イフ・イット・メイクス・ユー・ハッピー
TTITLE12=チャカ・カーン/ネバー・ミス・ザ・ウォーター
TTITLE13=アリーヤ/イフ・ユア・ガール・オンリー・ニュー
TTITLE14=エリック・ベネイ/スピリチュアル・サング
TTITLE15=バネッサ・ウィリアムス/アルフィー
TTITLE16=ファティマ・レイニー/ヘイ
EXTD=
EXTT0=
EXTT1=
EXTT2=
EXTT3=
EXTT4=
EXTT5=
EXTT6=
EXTT7=
EXTT8=
EXTT9=
EXTT10=
EXTT11=
EXTT12=
EXTT13=
EXTT14=
EXTT15=
EXTT16=
PLAYORDER=
